<svg data-v-fde0c5aa="" xmlns="http://www.w3.org/2000/svg" viewBox="0 0 300 300" class="iconLeft"><!----><defs data-v-fde0c5aa=""><!----></defs><rect data-v-fde0c5aa="" fill="transparent" x="0" y="0" width="300px" height="300px" class="logo-background-square"></rect><defs data-v-fde0c5aa=""><!----></defs><g data-v-fde0c5aa="" id="50a9ebf9-4ca2-4862-bdab-f08c010283d5" fill="#000000" transform="matrix(2.623850273961727,0,0,2.623850273961727,95.16972424455491,132.09222238067093)"><path d="M-0.29 3.57L-0.29 1.93L5.46 1.93L5.46 3.57L3.55 3.57L3.55 10.34L4.42 10.34L4.42 10.54L3.55 10.54L3.55 11.29L3.04 11.29L3.04 11.55L3.40 11.55L3.40 11.73L1.66 11.73Q1.63 11.73 1.63 11.70L1.63 11.70L1.63 3.57L-0.29 3.57ZM3.54 10.34L2.88 10.34L2.88 10.54L3.54 10.54L3.54 10.34ZM5.59 1.93L5.59 1.93L7.44 1.93Q7.46 1.94 7.46 1.97L7.46 1.97L7.46 6.73Q7.46 6.76 7.44 6.76L7.44 6.76L7.22 6.76L7.22 11.70Q7.22 11.73 7.18 11.73L7.18 11.73L5.59 11.73Q5.56 11.73 5.56 11.70L5.56 11.70L5.56 6.64L5.07 6.64Q5.03 6.64 5.03 6.61L5.03 6.61L5.03 6.40Q5.04 6.36 5.07 6.36L5.07 6.36L5.56 6.36L5.56 1.97Q5.56 1.93 5.59 1.93ZM6.51 6.36L5.57 6.36L5.57 6.64L6.51 6.64L6.51 6.36ZM11.59 1.93L11.59 1.93Q13.64 1.93 14.17 3.21L14.17 3.21Q14.32 3.53 14.32 3.63L14.32 3.63L13.46 3.63L13.46 3.89L14.38 3.89L14.38 3.88Q14.38 3.81 14.32 3.63L14.32 3.63L15.90 3.63L15.90 3.89L14.40 3.89L14.40 3.91Q14.52 4.46 14.57 5.09L14.57 5.09Q14.57 5.13 12.77 5.22L12.77 5.22L12.77 5.21Q12.77 3.58 11.65 3.58L11.65 3.58L11.46 3.58Q10.62 3.58 10.43 4.29L10.43 4.29Q10.28 4.89 10.28 5.87L10.28 5.87L10.28 7.20L10.27 7.40L9.65 7.40L9.65 7.71L10.27 7.71L10.27 10.08L12.91 10.08L12.91 7.62L14.42 7.62L14.42 10.08L13.58 10.08L13.58 11.60L11.82 11.60L11.82 11.73L10.45 11.73L10.45 11.60L9.06 11.60L9.06 10.84L9.99 10.84L9.99 10.51L8.61 10.51L8.61 9.39L8.01 9.39L8.01 8.01L8.33 8.01Q8.31 7.15 8.31 6.66L8.31 6.66Q8.31 4.42 8.52 3.84L8.52 3.84Q8.72 3.17 9.18 2.69L9.18 2.69Q9.99 1.93 11.59 1.93ZM10.40 9.59L10.40 9.59L10.48 9.59L10.48 9.93L10.68 9.93L10.68 10.04L10.40 10.04Q10.37 10.04 10.37 10.00L10.37 10.00L10.37 9.63Q10.37 9.59 10.40 9.59ZM12.46 9.60L12.46 9.59L12.56 9.59Q12.64 9.66 12.64 9.72L12.64 9.72Q12.65 9.72 12.76 9.59L12.76 9.59L12.84 9.59L12.84 9.63Q12.72 9.78 12.72 9.84L12.72 9.84Q12.74 9.84 12.85 10.01L12.85 10.01L12.85 10.04L12.76 10.04L12.64 9.91Q12.58 10.02 12.54 10.04L12.54 10.04L12.44 10.04Q12.48 9.97 12.59 9.80L12.59 9.80L12.46 9.60ZM13.81 10.19L13.81 10.19Q13.97 10.23 13.97 10.28L13.97 10.28L13.97 10.35L13.90 10.35L13.84 10.28L13.77 10.28Q13.74 10.29 13.74 10.32L13.74 10.32L13.74 10.35Q13.99 10.40 13.99 10.46L13.99 10.46L13.99 10.51Q13.99 10.64 13.84 10.64L13.84 10.64L13.77 10.64Q13.69 10.64 13.63 10.55L13.63 10.55L13.63 10.48L13.73 10.48Q13.73 10.56 13.82 10.56L13.82 10.56L13.84 10.56Q13.86 10.56 13.89 10.51L13.89 10.51Q13.89 10.49 13.66 10.40L13.66 10.40L13.64 10.36L13.64 10.28Q13.64 10.23 13.81 10.19ZM15.33 10.60L15.33 1.93L17.25 1.93L17.25 3.77Q17.25 4.70 17.22 5.76L17.22 5.76L17.22 5.78L17.24 5.78Q17.48 5.33 18.54 3.46L18.54 3.46Q19.09 2.51 19.09 2.02L19.09 2.02L19.09 1.93L21.06 1.93L21.06 1.98Q21.06 2.92 20.29 4.03L20.29 4.03L19.11 5.74L20.27 8.19L21.31 8.19L21.31 8.48L20.14 8.48L20.14 8.50Q20.42 9.11 20.50 9.23L20.50 9.23L20.71 9.23L20.71 10.12L21.01 10.12L21.01 11.72Q20.51 11.73 20.27 11.73L20.27 11.73L19.79 11.73Q19.54 11.73 19.10 11.72L19.10 11.72L19.10 10.64L18.67 10.64L18.67 9.23L18.42 9.23L18.16 8.48L20.12 8.48L20.12 8.19L18.33 8.19Q18.33 8.16 18.01 7.20L18.01 7.20L17.99 7.20Q17.83 7.51 17.34 8.19L17.34 8.19L18.16 8.19L18.16 8.48L17.25 8.48L17.25 8.96L17.14 8.96L17.14 11.20L17.25 11.20L17.25 11.70Q17.25 11.73 17.22 11.73L17.22 11.73L15.36 11.73Q15.33 11.73 15.33 11.70L15.33 11.70L15.33 10.92L16.20 10.92L16.20 10.60L15.33 10.60ZM20.32 7.69L20.32 7.69L20.42 7.69Q20.46 7.69 20.51 7.96L20.51 7.96Q20.54 7.96 20.62 7.69L20.62 7.69L20.76 7.69L20.76 8.11Q20.76 8.14 20.73 8.14L20.73 8.14L20.67 8.14L20.67 7.88L20.65 7.88Q20.65 7.90 20.57 8.14L20.57 8.14L20.51 8.14Q20.47 8.14 20.42 7.91L20.42 7.91L20.40 7.91L20.40 8.11Q20.40 8.14 20.37 8.14L20.37 8.14L20.32 8.14Q20.29 8.14 20.29 8.11L20.29 8.11L20.29 7.72Q20.29 7.69 20.32 7.69ZM17.32 8.19L16.12 8.19L16.12 8.48L17.24 8.48Q17.24 8.43 17.32 8.19L17.32 8.19ZM18.69 10.73L18.69 10.71L18.79 10.71Q18.81 10.71 18.89 10.82L18.89 10.82Q18.95 10.71 18.97 10.71L18.97 10.71L19.07 10.71L19.07 10.73L18.94 10.92Q18.97 10.93 19.09 11.14L19.09 11.14L18.95 11.14L18.89 11.01Q18.79 11.14 18.77 11.14L18.77 11.14L18.67 11.14Q18.79 10.93 18.82 10.92L18.82 10.92L18.69 10.73ZM22.29 6.77L22.29 1.94L27.11 1.94L27.11 3.54Q27.11 3.58 27.08 3.58L27.08 3.58L24.21 3.58L24.21 5.70L26.78 5.70L26.78 5.71Q26.78 5.81 26.75 6.75L26.75 6.75Q26.74 6.75 26.74 6.77L26.74 6.77L26.85 6.77L26.85 7.27L24.62 7.27L24.62 9.28L24.03 9.28L24.03 9.47L24.62 9.47L24.62 10.08L27.15 10.08L27.15 10.32L26.95 10.32L26.95 11.52L23.93 11.52L23.93 11.73L22.50 11.73L22.50 8.22L22.29 8.22L22.29 6.99L20.72 6.99L20.72 6.77L22.29 6.77ZM23.11 6.77L22.30 6.77L22.30 6.99L23.11 6.99L23.11 6.77ZM24.77 10.04L24.77 9.59L24.89 9.59L24.89 9.75L24.90 9.75Q24.90 9.71 25.05 9.59L25.05 9.59L25.17 9.59L25.01 9.77L25.18 10.04L25.07 10.04Q24.94 9.85 24.92 9.85L24.92 9.85Q24.89 9.86 24.89 9.88L24.89 9.88L24.89 10.04L24.77 10.04ZM25.35 10.04L25.35 9.59L25.58 9.59Q25.69 9.59 25.73 9.72L25.73 9.72Q25.73 9.74 25.66 9.84L25.66 9.84Q25.71 9.84 25.73 10.04L25.73 10.04L25.65 10.04Q25.61 10.04 25.59 9.87L25.59 9.87L25.46 9.87L25.46 10.04L25.35 10.04ZM26.09 9.59L26.09 9.59L26.15 9.59Q26.30 9.59 26.34 9.79L26.34 9.79L26.34 9.85Q26.34 9.91 26.29 9.97L26.29 9.97L26.29 9.99Q26.34 9.99 26.34 10.01L26.34 10.01Q26.34 10.04 26.29 10.07L26.29 10.07Q26.26 10.07 26.24 10.01L26.24 10.01L26.15 10.04L26.09 10.04Q25.93 10.04 25.91 9.79L25.91 9.79Q25.96 9.59 26.09 9.59ZM26.02 9.79L26.02 9.79L26.02 9.84Q26.02 9.95 26.14 9.95L26.14 9.95L26.15 9.95L26.15 9.93L26.13 9.93L26.13 9.92Q26.13 9.89 26.17 9.87L26.17 9.87L26.22 9.90Q26.22 9.89 26.24 9.80L26.24 9.80Q26.23 9.67 26.11 9.67L26.11 9.67Q26.02 9.69 26.02 9.79ZM25.58 9.69L25.46 9.69L25.46 9.79L25.58 9.79Q25.61 9.79 25.61 9.75L25.61 9.75L25.61 9.72Q25.61 9.69 25.58 9.69L25.58 9.69ZM27.05 10.51L27.05 10.41L27.15 10.41L27.15 10.43Q27.15 10.73 27.10 10.73L27.10 10.73Q27.05 10.73 27.05 10.51L27.05 10.51ZM27.05 10.84L27.05 10.74L27.15 10.74L27.15 10.84L27.05 10.84ZM27.21 3.57L27.21 1.93L32.95 1.93L32.95 3.57L31.05 3.57L31.05 10.34L31.91 10.34L31.91 10.54L31.05 10.54L31.05 11.29L30.54 11.29L30.54 11.55L30.90 11.55L30.90 11.73L29.16 11.73Q29.12 11.73 29.12 11.70L29.12 11.70L29.12 3.57L27.21 3.57ZM31.04 10.34L30.37 10.34L30.37 10.54L31.04 10.54L31.04 10.34ZM36.08 3.56L36.08 1.92L41.25 1.92L41.25 3.17Q41.25 3.21 40.46 4.88L40.46 4.88L42.21 4.88L42.21 5.31L40.27 5.31Q40.25 5.31 39.74 6.36L39.74 6.36Q39.73 6.44 39.23 7.47L39.23 7.47L39.51 7.47Q38.99 8.63 38.92 8.71L38.92 8.71L38.08 8.71L38.08 9.09L38.75 9.09L38.29 10.08L40.09 10.08L40.09 10.59L41.71 10.59L41.71 11.70Q41.71 11.73 41.68 11.73L41.68 11.73L38.95 11.73L38.95 11.57L36.08 11.57L36.08 10.62L36.49 10.62L36.49 9.57Q36.61 9.27 37.48 7.47L37.48 7.47L37.20 7.47L37.20 7.45L39.07 3.56L36.08 3.56ZM40.44 4.88L39.53 4.88L39.53 5.31L40.22 5.31Q40.26 5.31 40.44 4.88L40.44 4.88ZM45.76 1.93L45.76 1.93Q47.87 1.93 48.53 3.41L48.53 3.41Q48.90 4.13 48.90 6.18L48.90 6.18L48.90 6.23L48.18 6.23L48.18 6.56L48.90 6.56L48.90 10.09L48.43 10.09L48.43 11.37L47.48 11.37L47.48 11.73L44.15 11.73L44.15 11.37L43.74 11.37L43.74 10.09L42.89 10.09L42.89 9.09L43.40 9.09L43.40 8.57L42.89 8.57L42.89 9.09L41.68 9.09L41.68 8.57L42.59 8.57Q42.58 7.37 42.58 6.73L42.58 6.73L42.58 5.90Q42.58 3.58 43.37 2.79L43.37 2.79Q44.09 1.93 45.76 1.93ZM44.56 5.31L44.56 5.31L44.58 5.31L44.56 5.34L44.56 6.23L43.83 6.23L43.83 6.56L44.56 6.56Q44.54 8.67 44.54 9.75L44.54 9.75L44.54 10.09L46.18 10.09L46.18 9.55L46.94 9.55L46.94 9.54Q46.94 8.54 46.92 6.75L46.92 6.75Q46.92 6.68 46.94 6.37L46.94 6.37Q46.94 4.44 46.71 4.00L46.71 4.00Q46.48 3.58 45.86 3.58L45.86 3.58L45.61 3.58Q44.87 3.58 44.69 4.22L44.69 4.22Q44.61 4.55 44.56 5.31ZM48.90 6.56L48.90 6.23L50.08 6.23L50.08 6.56L48.90 6.56ZM48.95 6.64L48.99 6.62L49.02 6.62Q49.06 6.62 49.08 6.82L49.08 6.82Q49.11 6.82 49.16 6.62L49.16 6.62L49.21 6.62Q49.25 6.62 49.28 6.83L49.28 6.83L49.29 6.83L49.34 6.62L49.42 6.62L49.42 6.64Q49.35 6.99 49.31 6.99L49.31 6.99L49.25 6.99Q49.25 6.97 49.20 6.78L49.20 6.78L49.18 6.78Q49.16 6.99 49.12 6.99L49.12 6.99L49.05 6.99Q49 6.78 48.95 6.64L48.95 6.64ZM49.02 7.11L49.02 7.11L49.08 7.11Q49.12 7.11 49.18 7.34L49.18 7.34L49.20 7.34Q49.20 7.31 49.26 7.11L49.26 7.11L49.38 7.11L49.38 7.49L49.29 7.49L49.29 7.29L49.28 7.29Q49.23 7.49 49.20 7.49L49.20 7.49L49.15 7.49Q49.10 7.33 49.10 7.31L49.10 7.31L49.08 7.31Q49.08 7.49 49.05 7.49L49.05 7.49L48.99 7.49L48.99 7.14Q48.99 7.11 49.02 7.11ZM48.97 7.60L48.97 7.60L49.03 7.60Q49.12 7.65 49.12 7.72L49.12 7.72Q49.12 7.72 49.21 7.60L49.21 7.60L49.28 7.60L49.28 7.64L49.18 7.78Q49.18 7.79 49.29 7.96L49.29 7.96L49.29 7.98L49.21 7.98L49.12 7.86Q49.06 7.98 49.03 7.98L49.03 7.98L48.95 7.98Q49.07 7.81 49.07 7.78L49.07 7.78Q48.97 7.63 48.97 7.60ZM49.02 8.09L49.02 8.09L49.12 8.09Q49.28 8.09 49.28 8.21L49.28 8.21L49.28 8.22L49.25 8.27Q49.27 8.27 49.29 8.33L49.29 8.33L49.29 8.39Q49.26 8.47 49.13 8.47L49.13 8.47L48.99 8.47L48.99 8.13Q48.99 8.09 49.02 8.09ZM49.18 8.18L49.08 8.18L49.08 8.24L49.18 8.24L49.18 8.18ZM46.55 8.54L46.55 8.18L46.64 8.18L46.64 8.31L46.76 8.31L46.76 8.21Q46.76 8.18 46.79 8.18L46.79 8.18L46.85 8.18L46.85 8.54L46.76 8.54L46.76 8.39L46.64 8.39L46.64 8.54L46.55 8.54ZM49.16 8.31L49.08 8.31L49.08 8.39L49.20 8.39L49.20 8.34Q49.20 8.31 49.16 8.31L49.16 8.31ZM49.02 8.59L49.02 8.59L49.23 8.59Q49.26 8.59 49.26 8.62L49.26 8.62L49.26 8.67L49.08 8.67L49.08 8.73L49.25 8.73L49.25 8.81L49.08 8.81L49.08 8.88L49.26 8.88L49.26 8.96L48.99 8.96L48.99 8.62Q48.99 8.59 49.02 8.59ZM46.55 8.75L46.55 8.67L46.82 8.67L46.82 8.70Q46.82 8.76 46.66 8.95L46.66 8.95Q46.84 8.95 46.84 8.98L46.84 8.98L46.84 9.03L46.53 9.03L46.53 8.96Q46.65 8.82 46.69 8.75L46.69 8.75L46.55 8.75ZM44.82 9.14L44.82 9.14Q44.97 9.14 44.99 9.36L44.99 9.36Q44.99 9.52 44.79 9.54L44.79 9.54Q44.63 9.50 44.63 9.36L44.63 9.36Q44.63 9.14 44.82 9.14ZM46.64 9.16L46.64 9.16L46.74 9.16Q46.74 9.20 46.87 9.52L46.87 9.52L46.79 9.52Q46.76 9.52 46.76 9.45L46.76 9.45L46.64 9.45Q46.61 9.45 46.61 9.52L46.61 9.52L46.51 9.52L46.51 9.50Q46.55 9.44 46.64 9.16ZM44.73 9.29L44.73 9.29L44.73 9.36Q44.73 9.45 44.82 9.45L44.82 9.45Q44.89 9.44 44.89 9.36L44.89 9.36L44.89 9.29Q44.89 9.26 44.82 9.22L44.82 9.22L44.79 9.22Q44.77 9.22 44.73 9.29ZM46.68 9.29L46.68 9.29L46.66 9.37L46.72 9.37Q46.70 9.29 46.68 9.29ZM44.79 9.63L44.79 9.63Q44.90 9.63 44.95 9.73L44.95 9.73L44.95 9.78L44.87 9.78Q44.87 9.71 44.78 9.71L44.78 9.71L44.73 9.78L44.73 9.84Q44.73 9.95 44.82 9.95L44.82 9.95Q44.84 9.95 44.91 9.86L44.91 9.86L44.97 9.86Q44.97 10.00 44.79 10.03L44.79 10.03Q44.63 9.98 44.63 9.84L44.63 9.84Q44.65 9.63 44.79 9.63ZM50.00 1.93L50.00 1.93L52.01 1.93Q52.05 1.93 52.65 3.51L52.65 3.51Q52.71 3.56 53.91 6.60L53.91 6.60L54.42 6.60L54.42 1.93L56.18 1.93L56.18 7.49L56.38 7.49L56.38 9.66L55.67 9.66L55.67 10.08L56.38 10.08L56.38 11.37L53.74 11.37L53.74 9.73L53.28 9.73Q52.34 7.42 52.01 6.55L52.01 6.55L52.01 4.89L51.76 4.89L51.76 9.93L51.37 9.93L51.37 11.66L49.72 11.66L49.72 7.92L50.03 7.92L50.03 7.91Q50.00 3.07 50.00 1.93ZM56.26 5.35L56.26 4.98L56.44 4.98Q56.57 4.98 56.57 5.11L56.57 5.11Q56.57 5.16 56.53 5.16L56.53 5.16Q56.57 5.22 56.57 5.31L56.57 5.31L56.57 5.35L56.49 5.35Q56.48 5.21 56.44 5.21L56.44 5.21L56.36 5.21L56.36 5.35L56.26 5.35ZM56.48 5.06L56.36 5.06L56.36 5.15L56.44 5.15Q56.48 5.15 56.48 5.11L56.48 5.11L56.48 5.06ZM56.26 5.48L56.26 5.48L56.54 5.48L56.54 5.56L56.44 5.56L56.44 5.84L56.34 5.84L56.34 5.56L56.26 5.56Q56.23 5.56 56.23 5.52L56.23 5.52L56.23 5.51Q56.23 5.48 56.26 5.48ZM56.23 5.97L56.23 5.97L56.29 5.97Q56.33 5.97 56.38 6.19L56.38 6.19L56.41 6.19L56.46 5.97L56.56 5.97L56.44 6.34L56.36 6.34Q56.32 6.34 56.23 5.97ZM56.25 6.47L56.25 6.47L56.34 6.47Q56.35 6.53 56.41 6.57L56.41 6.57Q56.46 6.47 56.49 6.47L56.49 6.47L56.56 6.47L56.56 6.49Q56.46 6.64 56.46 6.67L56.46 6.67Q56.49 6.67 56.57 6.83L56.57 6.83L56.46 6.83Q56.46 6.78 56.40 6.73L56.40 6.73Q56.33 6.83 56.31 6.83L56.31 6.83L56.23 6.83Q56.34 6.66 56.34 6.65L56.34 6.65Q56.25 6.49 56.25 6.47ZM53.88 6.60L52.95 6.60L52.95 6.97L54.04 6.97Q53.92 6.60 53.88 6.60L53.88 6.60ZM55.23 6.60L54.44 6.60L54.44 6.97L54.06 6.97Q54.41 7.84 54.48 8.11L54.48 8.11L54.49 8.11L54.49 8.06Q54.44 7.16 54.44 6.97L54.44 6.97L55.23 6.97L55.23 6.60ZM56.26 7.33L56.26 6.97L56.42 6.97Q56.59 6.99 56.59 7.13L56.59 7.13L56.59 7.14Q56.59 7.33 56.44 7.33L56.44 7.33L56.26 7.33ZM56.44 7.05L56.36 7.05L56.36 7.26Q56.49 7.26 56.49 7.16L56.49 7.16L56.49 7.14Q56.49 7.06 56.44 7.05L56.44 7.05ZM53.38 9.83L53.38 9.83L53.63 9.83L53.63 9.91L53.45 9.91L53.45 9.97L53.59 9.97Q53.63 9.98 53.63 10.01L53.63 10.01L53.63 10.03Q53.63 10.06 53.59 10.06L53.59 10.06L53.45 10.06L53.45 10.12L53.61 10.12Q53.65 10.13 53.65 10.16L53.65 10.16L53.65 10.17Q53.65 10.21 53.61 10.21L53.61 10.21L53.38 10.21Q53.35 10.21 53.35 10.17L53.35 10.17L53.35 9.86Q53.35 9.83 53.38 9.83ZM51.39 10.01L51.39 10.01L51.50 10.01Q51.56 10.21 51.56 10.24L51.56 10.24L51.58 10.24Q51.62 10.01 51.66 10.01L51.66 10.01L51.73 10.01L51.73 10.03Q51.63 10.38 51.60 10.38L51.60 10.38L51.51 10.38Q51.51 10.33 51.39 10.01ZM53.51 10.32L53.51 10.32L53.55 10.32Q53.58 10.33 53.58 10.36L53.58 10.36L53.58 10.58Q53.58 10.66 53.50 10.71L53.50 10.71L53.45 10.71Q53.33 10.71 53.33 10.59L53.33 10.59L53.33 10.55L53.42 10.55Q53.42 10.62 53.45 10.62L53.45 10.62L53.48 10.62L53.48 10.36Q53.48 10.32 53.51 10.32ZM53.38 10.82L53.38 10.82L53.42 10.82Q53.45 10.82 53.45 10.95L53.45 10.95L53.59 10.82L53.68 10.82L53.68 10.83L53.55 10.99Q53.57 10.99 53.70 11.18L53.70 11.18L53.66 11.20L53.61 11.20Q53.59 11.20 53.48 11.05L53.48 11.05Q53.45 11.05 53.43 11.20L53.43 11.20L53.38 11.20Q53.35 11.20 53.35 11.17L53.35 11.17L53.35 10.86Q53.35 10.82 53.38 10.82ZM53.74 11.73L53.74 11.55L56.92 11.55L56.92 11.73L53.74 11.73ZM57.96 6.77L57.96 1.94L62.79 1.94L62.79 3.54Q62.79 3.58 62.75 3.58L62.75 3.58L59.89 3.58L59.89 5.70L62.46 5.70L62.46 5.71Q62.46 5.81 62.43 6.75L62.43 6.75Q62.41 6.75 62.41 6.77L62.41 6.77L62.53 6.77L62.53 7.27L60.30 7.27L60.30 9.28L59.71 9.28L59.71 9.47L60.30 9.47L60.30 10.08L62.82 10.08L62.82 10.32L62.62 10.32L62.62 11.52L59.61 11.52L59.61 11.73L58.17 11.73L58.17 8.22L57.96 8.22L57.96 6.99L56.40 6.99L56.40 6.77L57.96 6.77ZM58.78 6.77L57.98 6.77L57.98 6.99L58.78 6.99L58.78 6.77ZM60.45 10.04L60.45 9.59L60.57 9.59L60.57 9.75L60.58 9.75Q60.58 9.71 60.73 9.59L60.73 9.59L60.85 9.59L60.68 9.77L60.86 10.04L60.74 10.04Q60.61 9.85 60.60 9.85L60.60 9.85Q60.57 9.86 60.57 9.88L60.57 9.88L60.57 10.04L60.45 10.04ZM61.02 10.04L61.02 9.59L61.26 9.59Q61.37 9.59 61.41 9.72L61.41 9.72Q61.41 9.74 61.34 9.84L61.34 9.84Q61.39 9.84 61.41 10.04L61.41 10.04L61.33 10.04Q61.29 10.04 61.27 9.87L61.27 9.87L61.14 9.87L61.14 10.04L61.02 10.04ZM61.77 9.59L61.77 9.59L61.83 9.59Q61.98 9.59 62.02 9.79L62.02 9.79L62.02 9.85Q62.02 9.91 61.97 9.97L61.97 9.97L61.97 9.99Q62.02 9.99 62.02 10.01L62.02 10.01Q62.02 10.04 61.97 10.07L61.97 10.07Q61.94 10.07 61.91 10.01L61.91 10.01L61.83 10.04L61.77 10.04Q61.61 10.04 61.58 9.79L61.58 9.79Q61.63 9.59 61.77 9.59ZM61.70 9.79L61.70 9.79L61.70 9.84Q61.70 9.95 61.82 9.95L61.82 9.95L61.83 9.95L61.83 9.93L61.80 9.93L61.80 9.92Q61.80 9.89 61.85 9.87L61.85 9.87L61.90 9.90Q61.90 9.89 61.91 9.80L61.91 9.80Q61.91 9.67 61.78 9.67L61.78 9.67Q61.70 9.69 61.70 9.79ZM61.26 9.69L61.14 9.69L61.14 9.79L61.26 9.79Q61.29 9.79 61.29 9.75L61.29 9.75L61.29 9.72Q61.29 9.69 61.26 9.69L61.26 9.69ZM62.73 10.51L62.73 10.41L62.82 10.41L62.82 10.43Q62.82 10.73 62.77 10.73L62.77 10.73Q62.73 10.73 62.73 10.51L62.73 10.51ZM62.73 10.84L62.73 10.74L62.82 10.74L62.82 10.84L62.73 10.84Z"></path></g><defs data-v-fde0c5aa=""><linearGradient data-v-fde0c5aa="" gradientTransform="rotate(25)" id="9010d856-2ad1-4a8a-aab7-11605533d952" x1="0%" y1="0%" x2="100%" y2="0%"><stop data-v-fde0c5aa="" offset="0%" stop-color="#D6413F" stop-opacity="1"></stop><stop data-v-fde0c5aa="" offset="100%" stop-color="#4285D3" stop-opacity="1"></stop></linearGradient></defs><g data-v-fde0c5aa="" id="cf8e2176-c666-4650-bb99-1c92fb847407" stroke="none" fill="url(#9010d856-2ad1-4a8a-aab7-11605533d952)" transform="matrix(0.4312563714408826,0,0,0.4312563714408826,39.31171443882102,128.77118800210025)"><path d="M83.57 87.275c.767 0 1.393-.623 1.393-1.392V57.447c0-.77-.626-1.393-1.393-1.393h-7.354v31.22h7.354v.001zM13.627 57.447v28.438c0 .768.625 1.393 1.393 1.393h60.33V56.055H15.02c-.769 0-1.393.625-1.393 1.392z"></path><path d="M94.802 56.811c-.058.002-.114.004-.173.004a6.392 6.392 0 01-3.344-.942c-1.698-1.042-2.576-2.204-3.576-3.913l-.125-.25-.771-1.333-71.062-.25-.125.031.029.01-4.821-.041.042.75-.061.569a6.423 6.423 0 01-7.027 5.332v3.144l1.456 1.454-1.457 1.454v.734l1.456 1.457-1.456 1.455v1.082l1.456 1.459-1.456 1.455v.715l.279.301 1.177 1.176-.04.039.229.245-1.645 1.54v.479l1.521 1.629-1.521 1.424v1.084l1.385 1.483-1.385 1.297v.997l1.262 1.354-1.262 1.18v2.01a6.426 6.426 0 017.121 6.389c0 .059-.003.115-.004.176h77.302c-.001-.061-.005-.117-.005-.176a6.427 6.427 0 016.428-6.426c.059 0 .115.002.173.004v-2.168l-1.124-1.205 1.124-1.051v-1.523l-1.001-1.069 1.001-.937v-2.131l-.866-.927.866-.81V73.6l-.934-.936.934-.936v-1.776l-.934-.937.934-.936v-2.124l-.934-.937.934-.936v-1.773l-.934-.937.934-.935v-3.626zm-9.103 10.858v18.216a2.132 2.132 0 01-2.129 2.131H15.02a2.131 2.131 0 01-2.13-2.131V57.447c0-1.176.954-2.133 2.13-2.133H83.57c1.174 0 2.129.957 2.129 2.133v10.222z"></path><path d="M97.615 39.133a6.427 6.427 0 01-3.697-9.192L20.764 4.461c-.06.338-.145.677-.261 1.011a6.304 6.304 0 01-.373.846c-.031.06-.061.119-.093.177a6.426 6.426 0 01-.478.738c-.027.036-.057.068-.084.103-.164.208-.34.404-.527.588-.039.038-.075.077-.114.114a6.441 6.441 0 01-.662.542c-.048.034-.097.065-.145.098a6.388 6.388 0 01-.699.414l-.066.036a6.397 6.397 0 01-.98.379 6.397 6.397 0 01-.847.2l-.065.007c-.273.041-.549.06-.828.064-.037 0-.072.008-.108.008-.022 0-.045-.005-.068-.006a6.218 6.218 0 01-.92-.077c-.057-.009-.114-.021-.17-.032a6.451 6.451 0 01-.956-.245 6.513 6.513 0 01-.643-.264l-1.033 2.967.896 1.854-1.854.896-.242.694.895 1.854-1.854.896-.356 1.022.896 1.855-1.854.896-.236.676.166.375.724 1.497-.051.025.135.307-2.059.911-.158.453.901 2.039-1.905.842-.356 1.025.82 1.858-1.734.767-.329.944.747 1.691-1.579.699-.661 1.898a6.423 6.423 0 014.65 8.282l.026.009-.007.021 8.534 2.973h39.688l-40.63-14.324a.468.468 0 11.312-.884l43.137 15.21h22.541L16.661 27.111a.469.469 0 01.312-.884L82.667 49.39h5.156l.118.301c.002.005.031.076.076.174l.357.677s1.816 2.767 2.975 3.653l1.358-.975.583-1.679-.574-1.19 1.19-.576.698-2.007-.574-1.19 1.189-.576.586-1.678-.576-1.19 1.188-.576 1.198-3.425zm-12.314 3.238L19.465 19.158a.469.469 0 01.312-.884l65.834 23.213-.31.884z"></path></g><!----></svg>